<?xml version="1.0" encoding="UTF-8" standalone="no"?>
<svg
   width="18"
   height="18"
   fill="currentColor"
   class="bi bi-layout-text-window"
   viewBox="0 0 18 18"
   version="1.1"
   id="svg2"
   sodipodi:docname="layout-text-window-user.svg"
   xml:space="preserve"
   inkscape:version="1.4.3 (0d15f75, 2025-12-25)"
   xmlns:inkscape="http://www.inkscape.org/namespaces/inkscape"
   xmlns:sodipodi="http://sodipodi.sourceforge.net/DTD/sodipodi-0.dtd"
   xmlns="http://www.w3.org/2000/svg"
   xmlns:svg="http://www.w3.org/2000/svg"><defs
     id="defs2" /><sodipodi:namedview
     id="namedview2"
     pagecolor="#ffffff"
     bordercolor="#000000"
     borderopacity="0.25"
     inkscape:showpageshadow="2"
     inkscape:pageopacity="0.0"
     inkscape:pagecheckerboard="0"
     inkscape:deskcolor="#d1d1d1"
     inkscape:zoom="19.445436"
     inkscape:cx="7.9967349"
     inkscape:cy="6.5568083"
     inkscape:window-width="2212"
     inkscape:window-height="1186"
     inkscape:window-x="0"
     inkscape:window-y="30"
     inkscape:window-maximized="0"
     inkscape:current-layer="g2" /><g
     id="g2"
     inkscape:groupmode="layer"><g
       id="g5"
       transform="matrix(1.0324855,0,0,1.0324855,-0.0177464,-0.02004717)"><path
         d="m 3.5144924,7.0482238 a 0.49470096,0.49470096 0 0 1 0.494701,-0.494701 H 8.956203 a 0.49470096,0.49470096 0 0 1 0,0.9894018 H 4.0091934 A 0.49470096,0.49470096 0 0 1 3.5144924,7.0482238 m 0,2.9682062 A 0.49470096,0.49470096 0 0 1 4.0091934,9.5217288 H 8.956203 a 0.4947011,0.4947011 0 0 1 0,0.9894022 H 4.0091934 A 0.49470096,0.49470096 0 0 1 3.5144924,10.01643 m 0.494701,2.473505 a 0.49470127,0.49470127 0 0 0 0,0.989402 H 8.956203 a 0.49470127,0.49470127 0 0 0 0,-0.989402 z"
         id="path1"
         style="stroke-width:0.989401" /><g
         id="g3"
         transform="matrix(0.98940194,0,0,0.98940194,0.13487909,0.15427781)"><path
           d="M 2.4158144,0.46779121 A 2,2 0 0 0 0.41581441,2.4677912 V 14.467791 a 2,2 0 0 0 1.99999999,2 H 14.415814 a 2,2 0 0 0 2,-2 V 2.4677912 a 2,2 0 0 0 -2,-1.99999999 z M 14.415814,1.4677912 a 1,1 0 0 1 1,1 v 1 H 1.4158144 v -1 a 1,1 0 0 1 1,-1 z m 1,3 v 9.9999998 a 1,1 0 0 1 -1,1 h -2 V 4.4677912 Z m -4,0 V 15.467791 H 2.4158144 a 1,1 0 0 1 -1,-1 V 4.4677912 Z"
           id="path2" /></g></g><circle
       style="fill:#000000;stroke:#ffffff;stroke-width:0.601544;stroke-dasharray:none;stroke-opacity:1"
       id="path4"
       cx="13.010569"
       cy="12.933517"
       r="4.7179961" /><g
       style="display:inline;fill:#ffffff;fill-opacity:1"
       id="g4"
       transform="matrix(0.43819762,0,0,0.43819762,9.5049871,9.1262734)"><path
         d="m 3,14 c 0,0 -1,0 -1,-1 0,-1 1,-4 6,-4 5,0 6,3 6,4 0,1 -1,1 -1,1 z M 8,8 A 3,3 0 1 0 8,2 3,3 0 0 0 8,8"
         id="path1-7"
         style="fill:#ffffff;fill-opacity:1" /></g></g></svg>
