<svg xmlns="http://www.w3.org/2000/svg" fill="none" viewBox="0 0 24 24" id="Format-List-Numbered--Streamline-Outlined-Material" height="24" width="24">
  <desc>
    Format List Numbered Streamline Icon: https://streamlinehq.com
  </desc>
  <path fill="#000000" d="M3 22v-1.5h2.5v-0.75H4v-1.5h1.5V17.5H3v-1.5h3c0.28335 0 0.52085 0.09585 0.7125 0.2875S7 16.71665 7 17v1c0 0.28335 -0.09585 0.52085 -0.2875 0.7125S6.28335 19 6 19c0.28335 0 0.52085 0.09585 0.7125 0.2875S7 19.71665 7 20v1c0 0.28335 -0.09585 0.52085 -0.2875 0.7125S6.28335 22 6 22H3Zm0 -7v-2.75c0 -0.28335 0.095835 -0.52085 0.2875 -0.7125 0.191665 -0.19165 0.429165 -0.2875 0.7125 -0.2875h1.5V10.5H3v-1.5h3c0.28335 0 0.52085 0.09585 0.7125 0.2875S7 9.71665 7 10v1.75c0 0.28335 -0.09585 0.52085 -0.2875 0.7125s-0.42915 0.2875 -0.7125 0.2875H4.5V13.5h2.5v1.5H3Zm1.5 -7V3.5H3V2h3v6H4.5Zm4.725 10.775v-1.5H21v1.5H9.225Zm0 -6.075v-1.5H21v1.5H9.225Zm0 -6.075v-1.5H21v1.5H9.225Z" stroke-width="0.5"></path>
</svg>