<svg xmlns="http://www.w3.org/2000/svg" fill="none" viewBox="0 0 24 24" id="Format-List-Bulleted--Streamline-Outlined-Material" height="24" width="24">
  <desc>
    Format List Bulleted Streamline Icon: https://streamlinehq.com
  </desc>
  <path fill="#000000" d="M9.4249 19.05v-1.5h11.575v1.5h-11.575Zm0 -6.3v-1.5h11.575v1.5h-11.575Zm0 -6.325v-1.5h11.575v1.5h-11.575Zm-4.7 13.55c-0.4675 0 -0.867665 -0.15835 -1.2005 -0.475 -0.333 -0.31665 -0.4995 -0.7125 -0.4995 -1.1875s0.1625 -0.875 0.4875 -1.2c0.325 -0.325 0.725 -0.4875 1.2 -0.4875s0.87085 0.1665 1.1875 0.4995c0.31665 0.33285 0.475 0.733 0.475 1.2005 0 0.45385 -0.1616 0.84225 -0.48475 1.16525 -0.323 0.32315 -0.7114 0.48475 -1.16525 0.48475Zm0 -6.3c-0.4675 0 -0.867665 -0.164 -1.2005 -0.492 -0.333 -0.328 -0.4995 -0.72235 -0.4995 -1.183s0.1665 -0.855 0.4995 -1.183c0.332835 -0.328 0.733 -0.492 1.2005 -0.492 0.45385 0 0.84225 0.164 1.16525 0.492 0.32315 0.328 0.48475 0.72235 0.48475 1.183s-0.1616 0.855 -0.48475 1.183c-0.323 0.328 -0.7114 0.492 -1.16525 0.492Zm-0.025 -6.325c-0.460665 0 -0.855 -0.164 -1.183 -0.492 -0.328 -0.328 -0.492 -0.72235 -0.492 -1.183s0.164 -0.855 0.492 -1.183C3.8449 4.164 4.239235 4 4.6999 4c0.46065 0 0.855 0.164 1.183 0.492 0.328 0.328 0.492 0.72235 0.492 1.183s-0.164 0.855 -0.492 1.183c-0.328 0.328 -0.72235 0.492 -1.183 0.492Z" stroke-width="0.5"></path>
</svg>