<svg xmlns="http://www.w3.org/2000/svg" viewBox="0 0 100 100"><path d="M66.865 20.632c-1.426-.78-2.919-1.601-4.482-2.465-8.305-4.595-16.61-7.475-28.104-2.734-11.49 4.74-15.29 12.603-17.89 21.7-.487 1.702-.957 3.334-1.409 4.886 7.02-4.904 15.45-9.485 24.813-13.344 9.382-3.872 18.612-6.566 27.072-8.043m-8.34 53.058C27.156 86.628 4.487 82.778.656 73.566c-4.474-10.746 14.426-27.543 41.68-38.783 27.258-11.24 52.549-12.665 57.023-1.923 3.83 9.216-9.466 27.896-40.834 40.83m-2.432-5.848c13.877-5.724 23.604-14.014 21.73-18.52-1.873-4.503-14.643-3.515-28.52 2.204-13.877 5.724-23.604 14.014-21.73 18.521 1.873 4.503 14.643 3.515 28.52-2.205"/></svg>